<?xml version="1.0" encoding="UTF-8"?>
<svg width="246px" height="64px" viewBox="0 0 246 64" version="1.1" xmlns="http://www.w3.org/2000/svg" xmlns:xlink="http://www.w3.org/1999/xlink">
    <defs></defs>
    <g id="ðŸ¥-Illustration" stroke="none" stroke-width="1" fill="none" fill-rule="evenodd">
        <g id="Stacked-Group-3">
            <g id="Group-79-Copy-6" transform="translate(0.000000, 4.000000)">
                <polygon id="Rectangle-15-Copy-3" fill="#E26D02" points="72.1192982 11.4408602 86 11.4408602 86 15.9569892 72.1192982 15.9569892"></polygon>
                <polygon id="Combined-Shape" fill="#9B9B9B" points="28.6666667 29.8064516 28.6666667 21.3763441 23.2350877 21.3763441 23.2350877 29.8064516 21.122807 29.8064516 21.122807 34.3225806 31.9859649 34.3225806 31.9859649 29.8064516"></polygon>
                <polygon id="Combined-Shape" fill="#EF941B" points="86 12.0430108 73.6280702 12.0430108 73.6280702 6.92473118 75.7403509 6.92473118 75.7403509 8.7311828 80.8701754 8.7311828 80.8701754 9.93548387 86 9.93548387"></polygon>
                <polygon id="Combined-Shape" fill="#C9CBCD" points="70.9122807 15.3548387 57.9368421 15.3548387 57.9368421 12.344086 55.522807 12.344086 55.522807 17.4623656 50.6947368 17.4623656 50.6947368 9.93548387 53.4105263 9.93548387 53.4105263 8.7311828 55.8245614 8.7311828 55.8245614 7.52688172 57.9368421 7.52688172 57.9368421 5.11827957 60.6526316 5.11827957 60.6526316 2.40860215 70.9122807 2.40860215 70.9122807 4.21505376 73.6280702 4.21505376 73.6280702 12.0430108 70.9122807 12.0430108"></polygon>
                <polygon id="Combined-Shape" fill="#C9CBCD" points="58.8421053 2.10752688 58.8421053 5.41935484 63.0666667 5.41935484 63.0666667 0.602150538 59.1438596 0.602150538 59.1438596 0 56.1263158 0 56.1263158 2.10752688"></polygon>
                <polygon id="Combined-Shape" fill="#9B9B9B" points="69.7052632 15.0537634 69.7052632 11.7419355 73.6280702 11.7419355 73.6280702 15.9569892 72.1192982 15.9569892 72.1192982 19.5698925 57.3333333 19.5698925 57.3333333 15.0537634"></polygon>
                <polygon id="Rectangle-26-Copy-7" fill="#C9CBCD" points="60.954386 16.8602151 63.6701754 16.8602151 63.6701754 15.0537634 60.954386 15.0537634"></polygon>
                <polygon id="Combined-Shape" fill="#9B9B9B" points="50.6947368 23.1827957 55.8245614 23.1827957 55.8245614 19.5698925 58.2385965 19.5698925 58.2385965 11.7419355 53.4105263 11.7419355 53.4105263 16.8602151 50.6947368 16.8602151"></polygon>
                <polygon id="Combined-Shape" fill="#C9CBCD" points="50.6947368 16.5591398 50.6947368 9.93548387 47.677193 9.93548387 47.677193 12.344086 43.4526316 12.344086 43.4526316 15.655914 39.5298246 15.655914 39.5298246 20.7741935 43.4526316 20.7741935 43.4526316 23.1827957 53.4105263 23.1827957 53.4105263 16.5591398"></polygon>
                <polygon id="Rectangle-15-Copy-42" fill="#465059" points="21.122807 29.2043011 15.3894737 29.2043011 15.3894737 34.3225806 21.122807 34.3225806"></polygon>
                <polygon id="Combined-Shape" fill="#465059" points="4.82807018 19.5698925 6.03508772 19.5698925 6.03508772 17.7634409 13.5789474 17.7634409 13.5789474 15.9569892 21.122807 15.9569892 21.122807 17.7634409 21.122807 13.5483871 26.2526316 13.5483871 26.2526316 27.6989247 24.1403509 27.6989247 24.1403509 29.8064516 15.3894737 29.8064516 15.3894737 27.6989247 11.4666667 27.6989247 11.4666667 25.5913978 8.14736842 25.5913978 8.14736842 22.5806452 3.62105263 22.5806452 3.62105263 20.4731183 0 20.4731183 0 17.7634409 4.82807018 17.7634409"></polygon>
                <polygon id="Combined-Shape" fill="#C9CBCD" points="15.3894737 29.8064516 15.3894737 27.6989247 11.4666667 27.6989247 11.4666667 25.5913978 9.35438596 25.5913978 9.35438596 31.6129032 10.8631579 31.6129032 10.8631579 34.0215054 12.9754386 34.0215054 12.9754386 35.827957 15.3894737 35.827957 15.3894737 31.6129032 18.4070175 31.6129032 18.4070175 29.8064516"></polygon>
                <polygon id="Rectangle-15-Copy-45" fill="#BDC2C7" points="39.8315789 29.8064516 35.0035088 29.8064516 35.0035088 34.3225806 39.8315789 34.3225806"></polygon>
                <polygon id="Combined-Shape" fill="#9B9B9B" points="44.6596491 29.5053763 47.677193 29.5053763 47.677193 26.4946237 49.4877193 26.4946237 49.4877193 23.1827957 43.4526316 23.1827957 43.4526316 28.9032258 37.4175439 28.9032258 37.4175439 31.6129032 44.6596491 31.6129032"></polygon>
                <polygon id="Rectangle-15-Copy-44" fill="#C9CBCD" points="35.3052632 37.0322581 22.3298246 37.0322581 22.3298246 34.3225806 35.3052632 34.3225806"></polygon>
                <path d="M21.7263158,37.0322581 L21.7263158,42.4516129 L14.7859649,42.4516129 L14.7859649,37.0322581 L21.7263158,37.0322581 Z M21.7263158,44.2580645 L16.2947368,44.2580645 L16.2947368,42.4516129 L21.7263158,42.4516129 L21.7263158,44.2580645 Z M21.122807,44.2580645 L21.122807,47.2688172 L17.8035088,47.2688172 L17.8035088,44.2580645 L21.122807,44.2580645 Z" id="Combined-Shape" fill="#EF941B"></path>
                <path d="M28.3649123,39.7419355 L18.7087719,39.7419355 L18.7087719,37.0322581 L28.3649123,37.0322581 L28.3649123,39.7419355 Z M25.9508772,39.7419355 L25.9508772,42.7526882 L21.7263158,42.7526882 L21.7263158,39.7419355 L25.9508772,39.7419355 Z" id="Combined-Shape" fill="#CD6200"></path>
                <g id="Group-80" transform="translate(58.238596, 3.010753)">
                    <polygon id="Combined-Shape" fill="#EBEDF0" points="7.84561404 0.602150538 5.12982456 0.602150538 5.12982456 9.6344086 13.277193 9.6344086 13.277193 0.602150538 11.4666667 0.602150538 11.4666667 0 7.84561404 0"></polygon>
                    <polygon id="Rectangle-26-Copy-3" fill="#2C333A" points="9.65614035 1.50537634 12.3719298 1.50537634 12.3719298 6.62365591 9.65614035 6.62365591"></polygon>
                    <polygon id="Rectangle-26-Copy-5" fill="#9B9B9B" points="0 8.7311828 2.71578947 8.7311828 2.71578947 5.72043011 0 5.72043011"></polygon>
                    <polygon id="Rectangle-26-Copy-6" fill="#C9CBCD" points="0 14.1505376 2.71578947 14.1505376 2.71578947 11.1397849 0 11.1397849"></polygon>
                </g>
                <path d="M39.9891618,51.483871 L39.9891618,52.2365591 L39.9891618,54.7956989 L44.2606628,54.7956989 L44.2606628,52.9892473 L47.9219493,52.9892473 L47.9219493,56 L52.1934503,56 L52.1934503,47.2688172 L50.6679142,47.2688172 L50.6679142,42.7526882 L48.837271,42.7526882 L48.837271,40.344086 L46.091306,40.344086 L46.091306,29.5053763 L44.2606628,29.5053763 L44.2606628,23.1827957 L53.1087719,23.1827957 L53.1087719,17.7634409 L50.9730214,17.7634409 L50.9730214,12.0430108 L44.2606628,12.0430108 L44.2606628,9.93548387 L37.8534113,9.93548387 L37.8534113,9.03225806 L25.95423,9.03225806 L25.95423,25.2903226 L26.8695517,25.2903226 L26.8695517,28.6021505 L25.6491228,28.6021505 L25.6491228,34.0215054 L27.4797661,34.0215054 L27.4797661,45.4623656 L29.0053021,45.4623656 L29.0053021,48.4731183 L37.5483041,48.4731183 L37.5483041,51.483871 L39.9891618,51.483871 L39.9891618,50.5806452 L44.2606628,50.5806452 L44.2606628,52.9892473 Z" id="Combined-Shape" fill="#465059"></path>
            </g>
            <g id="Group-79-Copy-8" transform="translate(86.000000, 0.000000)">
                <polygon id="Rectangle-15-Copy-44" fill="#C9CBCD" points="34.8947368 53.7840376 22.0701754 53.7840376 22.0701754 50.7793427 34.8947368 50.7793427"></polygon>
                <polygon id="Rectangle-15-Copy-3" fill="#E26D02" points="72.7719298 28.2441315 85 28.2441315 85 32.7511737 72.7719298 32.7511737"></polygon>
                <polygon id="Combined-Shape" fill="#C9CBCD" points="44.1403509 13.8215962 44.1403509 23.7370892 43.245614 23.7370892 43.245614 30.3474178 44.1403509 30.3474178 44.1403509 48.3755869 34.5964912 48.3755869 34.5964912 51.0798122 31.3157895 51.0798122 31.3157895 48.3755869 23.8596491 48.3755869 23.8596491 30.3474178 26.5438596 30.3474178 26.5438596 27.342723 25.3508772 27.342723 25.3508772 21.9342723 27.4385965 21.9342723 27.4385965 10.2159624 28.6315789 10.2159624 28.6315789 7.21126761 43.5438596 7.21126761 43.5438596 5.10798122 47.7192982 5.10798122 47.7192982 13.8215962"></polygon>
                <polygon id="Combined-Shape" fill="#EF941B" points="85 28.8450704 72.7719298 28.8450704 72.7719298 23.7370892 74.8596491 23.7370892 74.8596491 25.5399061 79.9298246 25.5399061 79.9298246 26.741784 85 26.741784"></polygon>
                <polygon id="Rectangle-15-Copy-42" fill="#C9CBCD" points="20.877193 45.971831 15.2105263 45.971831 15.2105263 51.0798122 20.877193 51.0798122"></polygon>
                <polygon id="Combined-Shape" fill="#C9CBCD" points="70.0877193 32.1502347 57.2631579 32.1502347 57.2631579 29.1455399 54.877193 29.1455399 54.877193 33.6525822 49.2105263 33.6525822 49.2105263 26.741784 52.7894737 26.741784 52.7894737 25.5399061 55.1754386 25.5399061 55.1754386 24.3380282 57.2631579 24.3380282 57.2631579 21.9342723 59.9473684 21.9342723 59.9473684 19.2300469 70.0877193 19.2300469 70.0877193 21.0328638 72.7719298 21.0328638 72.7719298 29.4460094 70.0877193 29.4460094"></polygon>
                <polygon id="Combined-Shape" fill="#C9CBCD" points="57.8596491 16.5258216 57.8596491 22.2347418 62.0350877 22.2347418 62.0350877 16.2253521 59.3508772 16.2253521 59.3508772 14.1220657 56.3684211 14.1220657 56.3684211 16.5258216"></polygon>
                <polygon id="Combined-Shape" fill="#9B9B9B" points="57.5614035 31.8497653 56.9649123 31.8497653 56.9649123 36.3568075 71.2807018 36.3568075 71.2807018 32.7511737 72.7719298 32.7511737 72.7719298 28.8450704 68.8947368 28.8450704 68.8947368 31.8497653 60.245614 31.8497653 60.245614 30.9483568 57.5614035 30.9483568"></polygon>
                <polygon id="Rectangle-26-Copy-5" fill="#9B9B9B" points="57.5614035 28.5446009 60.245614 28.5446009 60.245614 25.5399061 57.5614035 25.5399061"></polygon>
                <polygon id="Rectangle-26-Copy-7" fill="#C9CBCD" points="60.245614 33.6525822 62.9298246 33.6525822 62.9298246 31.8497653 60.245614 31.8497653"></polygon>
                <polygon id="Combined-Shape" fill="#9B9B9B" points="50.1052632 39.9624413 55.1754386 39.9624413 55.1754386 36.3568075 57.5614035 36.3568075 57.5614035 28.5446009 52.7894737 28.5446009 52.7894737 33.6525822 50.1052632 33.6525822"></polygon>
                <path d="M52.7894737,39.9624413 L42.9473684,39.9624413 L42.9473684,37.5586854 L39.0701754,37.5586854 L39.0701754,32.4507042 L40.8596491,32.4507042 L40.8596491,21.9342723 L42.9473684,21.9342723 L42.9473684,12.6197183 L46.2280702,12.6197183 L46.2280702,7.81220657 L47.7192982,7.81220657 L47.7192982,5.10798122 L43.5438596,5.10798122 L43.5438596,7.51173709 L36.9824561,7.51173709 L36.9824561,4.20657277 L39.3684211,4.20657277 L39.3684211,1.8028169 L43.5438596,1.8028169 L43.5438596,2.70422535 L47.7192982,2.70422535 L47.7192982,0 L51.2982456,0 L51.2982456,8.11267606 L49.5087719,8.11267606 L49.5087719,12.9201878 L48.0175439,12.9201878 L48.0175439,15.0234742 L45.3333333,15.0234742 L45.3333333,25.8403756 L43.245614,25.8403756 L43.245614,29.1455399 L47.122807,29.1455399 L47.122807,26.741784 L50.1052632,26.741784 L50.1052632,33.3521127 L52.7894737,33.3521127 L52.7894737,39.9624413 Z M27.1403509,10.2159624 L29.5263158,10.2159624 L29.5263158,15.6244131 L27.1403509,15.6244131 L27.1403509,10.2159624 Z M31.9122807,6.61032864 L36.9824561,6.61032864 L36.9824561,9.61502347 L31.9122807,9.61502347 L31.9122807,6.61032864 Z" id="Combined-Shape" fill="#465059"></path>
                <polygon id="Combined-Shape" fill="#465059" points="4.77192982 36.3568075 5.96491228 36.3568075 5.96491228 34.5539906 13.4210526 34.5539906 13.4210526 32.7511737 20.877193 32.7511737 20.877193 34.5539906 20.877193 30.3474178 25.9473684 30.3474178 25.9473684 44.4694836 23.8596491 44.4694836 23.8596491 46.57277 15.2105263 46.57277 15.2105263 44.4694836 11.3333333 44.4694836 11.3333333 42.3661972 8.05263158 42.3661972 8.05263158 39.3615023 3.57894737 39.3615023 3.57894737 37.258216 0 37.258216 0 34.5539906 4.77192982 34.5539906"></polygon>
                <polygon id="Combined-Shape" fill="#C9CBCD" points="15.2105263 46.57277 15.2105263 44.4694836 11.3333333 44.4694836 11.3333333 42.3661972 9.24561404 42.3661972 9.24561404 48.3755869 10.7368421 48.3755869 10.7368421 50.7793427 12.8245614 50.7793427 12.8245614 52.5821596 15.2105263 52.5821596 15.2105263 48.3755869 18.1929825 48.3755869 18.1929825 46.57277"></polygon>
                <polygon id="Rectangle-15-Copy-43" fill="#9B9B9B" points="31.6140351 46.57277 20.877193 46.57277 20.877193 51.0798122 31.6140351 51.0798122"></polygon>
                <polygon id="Combined-Shape" fill="#9B9B9B" points="31.6140351 30.3474178 25.9473684 30.3474178 25.9473684 37.258216 30.122807 37.258216 30.122807 39.6619718 34 39.6619718 34 41.4647887 42.9473684 41.4647887 42.9473684 37.5586854 39.0701754 37.5586854 39.0701754 32.4507042 40.8596491 32.4507042 40.8596491 28.5446009 31.6140351 28.5446009"></polygon>
                <polygon id="Combined-Shape" fill="#9B9B9B" points="44.1403509 46.2723005 47.122807 46.2723005 47.122807 43.2676056 48.9122807 43.2676056 48.9122807 39.9624413 42.9473684 39.9624413 42.9473684 45.6713615 36.9824561 45.6713615 36.9824561 46.57277 34.5964912 46.57277 34.5964912 51.0798122 39.3684211 51.0798122 39.3684211 48.3755869 44.1403509 48.3755869"></polygon>
                <path d="M21.4736842,53.7840376 L21.4736842,59.1924883 L14.6140351,59.1924883 L14.6140351,53.7840376 L21.4736842,53.7840376 Z M21.4736842,60.9953052 L16.1052632,60.9953052 L16.1052632,59.1924883 L21.4736842,59.1924883 L21.4736842,60.9953052 Z M20.877193,60.9953052 L20.877193,64 L17.5964912,64 L17.5964912,60.9953052 L20.877193,60.9953052 Z" id="Combined-Shape" fill="#EF941B"></path>
                <path d="M28.0350877,56.4882629 L18.4912281,56.4882629 L18.4912281,53.7840376 L28.0350877,53.7840376 L28.0350877,56.4882629 Z M25.6491228,56.4882629 L25.6491228,59.4929577 L21.4736842,59.4929577 L21.4736842,56.4882629 L25.6491228,56.4882629 Z" id="Combined-Shape" fill="#CD6200"></path>
                <g id="Group-80" transform="translate(62.631579, 19.830986)">
                    <polygon id="Combined-Shape" fill="#EBEDF0" points="2.68421053 0.600938967 0 0.600938967 0 9.61502347 8.05263158 9.61502347 8.05263158 0.600938967 6.26315789 0.600938967 6.26315789 0 2.68421053 0"></polygon>
                    <polygon id="Rectangle-26-Copy-3" fill="#2C333A" points="4.47368421 1.50234742 7.15789474 1.50234742 7.15789474 6.61032864 4.47368421 6.61032864"></polygon>
                </g>
            </g>
            <g id="Group-81-Copy-5" transform="translate(171.000000, 5.000000)">
                <rect id="Rectangle-27" x="0" y="0" width="85" height="53.2"></rect>
                <path d="M40.7142857,13.9178082 L44.5238095,13.9178082 L44.5238095,13.5534247 L44.5238095,13.9178082 L48.3333333,13.9178082 L48.3333333,15.3753425 L55.1904762,15.3753425 L55.1904762,21.9342466 L60.5238095,21.9342466 L60.5238095,29.2219178 L55.1904762,29.2219178 L55.1904762,36.509589 L48.3333333,36.509589 L48.3333333,39.4246575 L36.9047619,39.4246575 L36.9047619,36.509589 L35.3809524,36.509589 L29.2857143,36.509589 L29.2857143,28.4931507 L33.8571429,28.4931507 L33.8571429,21.9342466 L29.2857143,21.9342466 L29.2857143,18.290411 L33.8571429,18.290411 L33.8571429,15.3753425 L37.6666667,15.3753425 L37.6666667,11.7315068 L40.7142857,11.7315068 L40.7142857,13.9178082 Z M44.5238095,11.7315068 L44.5238095,13.5534247 Z" id="Combined-Shape" fill="#C9CBCD"></path>
                <rect id="Rectangle-44-Copy-8" fill="#C9CBCD" transform="translate(60.142857, 41.246575) scale(-1, 1) translate(-60.142857, -41.246575) " x="52.9047619" y="39.4246575" width="14.4761905" height="3.64383562"></rect>
                <rect id="Rectangle-44-Copy-9" fill="#C9CBCD" transform="translate(61.285714, 37.967123) scale(-1, 1) translate(-61.285714, -37.967123) " x="59" y="35.7808219" width="4.57142857" height="4.37260274"></rect>
                <rect id="Rectangle-44-Copy-10" fill="#C9CBCD" transform="translate(65.095238, 48.169863) scale(-1, 1) translate(-65.095238, -48.169863) " x="62.8095238" y="45.9835616" width="4.57142857" height="4.37260274"></rect>
                <rect id="Rectangle-44-Copy-13" fill="#C9CBCD" transform="translate(54.428571, 49.813699) scale(-1, 1) translate(-54.428571, -49.813699) " x="52.1428571" y="47.6273973" width="4.57142857" height="4.37260274"></rect>
                <rect id="Rectangle-44-Copy-14" fill="#C9CBCD" transform="translate(50.619048, 46.169863) scale(-1, 1) translate(-50.619048, -46.169863) " x="48.3333333" y="43.9835616" width="4.57142857" height="4.37260274"></rect>
                <rect id="Rectangle-44-Copy-15" fill="#C9CBCD" transform="translate(34.285714, 48.186301) scale(-1, 1) translate(-34.285714, -48.186301) " x="32" y="46" width="4.57142857" height="4.37260274"></rect>
                <rect id="Rectangle-44-Copy-16" fill="#C9CBCD" transform="translate(20.523810, 44.161644) scale(-1, 1) translate(-20.523810, -44.161644) " x="18.6190476" y="42.339726" width="3.80952381" height="3.64383562"></rect>
                <rect id="Rectangle-44-Copy-17" fill="#C9CBCD" transform="translate(24.333333, 40.517808) scale(-1, 1) translate(-24.333333, -40.517808) " x="22.4285714" y="38.6958904" width="3.80952381" height="3.64383562"></rect>
                <rect id="Rectangle-44-Copy-27" fill="#C9CBCD" transform="translate(65.476190, 23.756164) scale(-1, 1) translate(-65.476190, -23.756164) " x="63.5714286" y="21.9342466" width="3.80952381" height="3.64383562"></rect>
                <rect id="Rectangle-44-Copy-18" fill="#C9CBCD" transform="translate(11.904762, 33.738899) scale(-1, 1) translate(-11.904762, -33.738899) " x="10" y="31.9169811" width="3.80952381" height="3.64383562"></rect>
                <rect id="Rectangle-44-Copy-19" fill="#C9CBCD" transform="translate(15.904762, 23.756164) scale(-1, 1) translate(-15.904762, -23.756164) " x="14" y="21.9342466" width="3.80952381" height="3.64383562"></rect>
                <rect id="Rectangle-44-Copy-28" fill="#FFBE02" transform="translate(20.904762, 23.391781) scale(-1, 1) translate(-20.904762, -23.391781) " x="18.6190476" y="21.2054795" width="4.57142857" height="4.37260274"></rect>
                <rect id="Rectangle-44-Copy-29" fill="#FFBE02" transform="translate(24.714286, 10.273973) scale(-1, 1) translate(-24.714286, -10.273973) " x="22.4285714" y="8.08767123" width="4.57142857" height="4.37260274"></rect>
                <rect id="Rectangle-44-Copy-20" fill="#C9CBCD" transform="translate(20.523810, 16.468493) scale(-1, 1) translate(-20.523810, -16.468493) " x="18.6190476" y="14.6465753" width="3.80952381" height="3.64383562"></rect>
                <rect id="Rectangle-44-Copy-21" fill="#C9CBCD" transform="translate(31.952381, 6.265753) scale(-1, 1) translate(-31.952381, -6.265753) " x="30.047619" y="4.44383562" width="3.80952381" height="3.64383562"></rect>
                <rect id="Rectangle-44-Copy-22" fill="#C9CBCD" transform="translate(42.619048, 3.350685) scale(-1, 1) translate(-42.619048, -3.350685) " x="40.7142857" y="1.52876712" width="3.80952381" height="3.64383562"></rect>
                <rect id="Rectangle-44-Copy-48" fill="#C9CBCD" transform="translate(54.809524, 2.621918) scale(-1, 1) translate(-54.809524, -2.621918) " x="52.9047619" y="0.8" width="3.80952381" height="3.64383562"></rect>
                <rect id="Rectangle-44-Copy-23" fill="#C9CBCD" transform="translate(61.666667, 9.909589) scale(-1, 1) translate(-61.666667, -9.909589) " x="59.7619048" y="8.08767123" width="3.80952381" height="3.64383562"></rect>
                <rect id="Rectangle-44-Copy-24" fill="#C9CBCD" transform="translate(68.523810, 3.350685) scale(-1, 1) translate(-68.523810, -3.350685) " x="66.6190476" y="1.52876712" width="3.80952381" height="3.64383562"></rect>
                <rect id="Rectangle-44-Copy-25" fill="#C9CBCD" transform="translate(65.095238, 17.561644) scale(-1, 1) translate(-65.095238, -17.561644) " x="62.8095238" y="15.3753425" width="4.57142857" height="4.37260274"></rect>
                <rect id="Rectangle-44-Copy-26" fill="#C9CBCD" transform="translate(72.714286, 23.391781) scale(-1, 1) translate(-72.714286, -23.391781) " x="70.4285714" y="21.2054795" width="4.57142857" height="4.37260274"></rect>
                <rect id="Rectangle-44-Copy-11" fill="#C9CBCD" transform="translate(72.714286, 37.238356) scale(-1, 1) translate(-72.714286, -37.238356) " x="70.4285714" y="35.0520548" width="4.57142857" height="4.37260274"></rect>
                <rect id="Rectangle-44-Copy-12" fill="#C9CBCD" transform="translate(61.285714, 31.408219) scale(-1, 1) translate(-61.285714, -31.408219) " x="59" y="29.2219178" width="4.57142857" height="4.37260274"></rect>
                <rect id="Rectangle-44-Copy-37" fill="#465059" transform="translate(31.190476, 15.739726) scale(-1, 1) translate(-31.190476, -15.739726) " x="27.7619048" y="12.460274" width="6.85714286" height="6.55890411"></rect>
                <rect id="Rectangle-44-Copy-39" fill="#465059" transform="translate(17.809524, 20.841096) scale(-1, 1) translate(-17.809524, -20.841096) " x="15.5238095" y="19.0191781" width="4.57142857" height="3.64383562"></rect>
                <rect id="Rectangle-44-Copy-40" fill="#465059" transform="translate(19.000000, 11.367123) scale(-1, 1) translate(-19.000000, -11.367123) " x="17.0952381" y="9.54520548" width="3.80952381" height="3.64383562"></rect>
                <rect id="Rectangle-44-Copy-41" fill="#465059" transform="translate(56.333333, 4.079452) scale(-1, 1) translate(-56.333333, -4.079452) " x="54.4285714" y="2.25753425" width="3.80952381" height="3.64383562"></rect>
                <rect id="Rectangle-44-Copy-42" fill="#BC2131" transform="translate(65.095238, 6.630137) scale(-1, 1) translate(-65.095238, -6.630137) " x="63.5714286" y="5.17260274" width="3.04761905" height="2.91506849"></rect>
                <rect id="Rectangle-44-Copy-30" fill="#BC2131" transform="translate(35.380952, 14.282192) scale(-1, 1) translate(-35.380952, -14.282192) " x="33.0952381" y="11.7315068" width="4.57142857" height="5.10136986"></rect>
                <path d="M47.5714286,31.4082192 L44.5238095,31.4082192 L44.5238095,34.3232877 L40.7142857,34.3232877 L40.7142857,31.4082192 L33.0952381,31.4082192 L33.0952381,25.5780822 L29.2857143,25.5780822 L29.2857143,21.9342466 L40.7142857,21.9342466 L40.7142857,15.3753425 L44.5238095,15.3753425 L44.5238095,21.9342466 L49.8571429,21.9342466 L49.8571429,23.3917808 L55.1904762,23.3917808 L55.1904762,27.0356164 L51.3809524,27.0356164 L51.3809524,33.5945205 L47.5714286,33.5945205 L47.5714286,31.4082192 Z" id="Combined-Shape" fill="#FFBE02"></path>
                <rect id="Rectangle-44-Copy-34" fill="#465059" transform="translate(34.238095, 38.331507) scale(-1, 1) translate(-34.238095, -38.331507) " x="30.8095238" y="35.0520548" width="6.85714286" height="6.55890411"></rect>
                <rect id="Rectangle-44-Copy-35" fill="#465059" transform="translate(57.857143, 19.383562) scale(-1, 1) translate(-57.857143, -19.383562) " x="54.4285714" y="16.1041096" width="6.85714286" height="6.55890411"></rect>
                <rect id="Rectangle-44-Copy-52" fill="#465059" transform="translate(47.190476, 27.400000) scale(-1, 1) translate(-47.190476, -27.400000) " x="45.2857143" y="25.5780822" width="3.80952381" height="3.64383562"></rect>
                <path d="M40.7142857,25.5780822 L40.7142857,19.0191781 L45.2857143,19.0191781 L45.2857143,21.9342466 L52.9047619,21.9342466 L52.9047619,25.5780822 L45.2857143,25.5780822 L45.2857143,32.1369863 L40.7142857,32.1369863 L40.7142857,29.2219178 L36.9047619,29.2219178 L36.9047619,25.5780822 L40.7142857,25.5780822 Z" id="Combined-Shape" fill="#BF3D31"></path>
                <rect id="Rectangle-44-Copy-36" fill="#465059" transform="translate(51.761905, 12.095890) scale(-1, 1) translate(-51.761905, -12.095890) " x="48.3333333" y="8.81643836" width="6.85714286" height="6.55890411"></rect>
                <rect id="Rectangle-44-Copy-33" fill="#BC2131" transform="translate(50.619048, 18.290411) scale(-1, 1) translate(-50.619048, -18.290411) " x="48.3333333" y="16.8328767" width="4.57142857" height="2.91506849"></rect>
                <rect id="Rectangle-44-Copy-31" fill="#BC2131" transform="translate(46.428571, 10.638356) scale(-1, 1) translate(-46.428571, -10.638356) " x="44.5238095" y="7.35890411" width="3.80952381" height="6.55890411"></rect>
                <rect id="Rectangle-44-Copy-38" fill="#465059" transform="translate(30.428571, 26.671233) scale(-1, 1) translate(-30.428571, -26.671233) " x="27.7619048" y="24.8493151" width="5.33333333" height="3.64383562"></rect>
                <rect id="Rectangle-44-Copy-32" fill="#BC2131" transform="translate(27.761905, 29.221918) scale(-1, 1) translate(-27.761905, -29.221918) " x="25.4761905" y="26.3068493" width="4.57142857" height="5.83013699"></rect>
            </g>
        </g>
    </g>
</svg>